M48
INCH
T01C0.0200
T02C0.0400
T03C0.0300
%
T01
X+030250Y-017000
X+041750Y-016500
X+030875Y-020875
X+035750Y-016500
X+036750Y-016500
X+031750Y-021750
X+024500Y-017000
X+039250Y-031250
X+034750Y-025500
X+037750Y-016500
X+025500Y-021500
X+031750Y-013000
X+024500Y-018000
X+024750Y-012000
X+030250Y-018000
X+029250Y-021000
X+040250Y-031250
T02
X+044500Y-003750
X+044500Y-004750
X+044500Y-005750
X+044500Y-006750
X+044500Y-007750
X+044500Y-008750
X+044500Y-009750
X+044500Y-010750
X+044500Y-018500
X+044500Y-019500
X+044500Y-020500
X+044500Y-021500
X+044500Y-022500
X+044500Y-023500
X+044500Y-024500
X+044500Y-025500
X+019750Y-005000
X+020750Y-005000
X+023500Y-005750
X+027500Y-005750
X+020750Y-002750
X+019750Y-002750
X+019500Y-008000
X+020500Y-008000
X+021500Y-008000
X+022500Y-008000
T03
X+039000Y-007750
X+043000Y-007750
X+039000Y-006750
X+043000Y-006750
X+039000Y-005750
X+043000Y-005750
X+039000Y-004750
X+043000Y-004750
X+039000Y-003750
X+043000Y-003750
X+039000Y-008750
X+043000Y-008750
X+039000Y-009750
X+043000Y-009750
X+035750Y-015500
X+036750Y-015500
X+037750Y-015500
X+038750Y-015500
X+039750Y-015500
X+040750Y-015500
X+041750Y-015500
X+042750Y-015500
X+042750Y-012500
X+041750Y-012500
X+040750Y-012500
X+039750Y-012500
X+038750Y-012500
X+037750Y-012500
X+036750Y-012500
X+035750Y-012500
X+033500Y-013250
X+033500Y-015250
X+039000Y-022500
X+043000Y-022500
X+039000Y-021500
X+043000Y-021500
X+039000Y-020500
X+043000Y-020500
X+039000Y-019500
X+043000Y-019500
X+039000Y-018500
X+043000Y-018500
X+039000Y-023500
X+043000Y-023500
X+039000Y-024500
X+043000Y-024500
X+035250Y-030000
X+036250Y-030000
X+037250Y-030000
X+038250Y-030000
X+039250Y-030000
X+040250Y-030000
X+041250Y-030000
X+042250Y-030000
X+042250Y-027000
X+041250Y-027000
X+040250Y-027000
X+039250Y-027000
X+038250Y-027000
X+037250Y-027000
X+036250Y-027000
X+035250Y-027000
X+033000Y-027750
X+033000Y-029750
X+027500Y-026250
X+026500Y-026250
X+025500Y-026250
X+024500Y-026250
X+023500Y-026250
X+022500Y-026250
X+021500Y-026250
X+021500Y-029250
X+022500Y-029250
X+023500Y-029250
X+024500Y-029250
X+025500Y-029250
X+026500Y-029250
X+027500Y-029250
X+030000Y-028500
X+030000Y-026500
X+026250Y-012000
X+026250Y-013000
X+026250Y-014000
X+026250Y-015000
X+026250Y-016000
X+026250Y-017000
X+026250Y-018000
X+026250Y-019000
X+029250Y-019000
X+029250Y-018000
X+029250Y-017000
X+029250Y-016000
X+029250Y-015000
X+029250Y-014000
X+029250Y-013000
X+029250Y-012000
X+028750Y-009750
X+026750Y-009750
X+024500Y-004250
X+028500Y-004250
M30
